#!OML:ASF F:\VICON\USERDATA\INSTALL\rory3\rory3.ASF
:FULLY-SPECIFIED
:DEGREES
569
root 4.42169 18.3163 3.21981 23.6178 -5.38007 -1.96348
lowerback 24.2702 3.16126 -3.97371
upperback 7.96225 2.98707 -1.30946
thorax -4.82927 1.415 0.0209532
lowerneck -5.56358 -2.74514 -8.99335
upperneck -7.88962 -2.85142 9.69055
head -1.13169 -1.32361 4.37229
rclavicle -3.24019e-014 8.34896e-015
rhumerus -5.83423 45.9219 -76.2431
rradius 72.7905
rwrist -1.19823
rhand -23.9644 -0.263995
rfingers 7.12502
rthumb 2.51178 -30.229
lclavicle -3.24019e-014 8.34896e-015
lhumerus -5.19665 -44.198 90.0928
lradius 33.6928
lwrist -15.6531
lhand -13.6838 39.2733
lfingers 7.12502
lthumb 12.434 68.8834
rfemur -43.3049 5.10577 2.31176
rtibia 42.3753
rfoot -14.4854 -9.9059
rtoes -10.342
lfemur -50.525 -1.39976 -13.4068
ltibia 35.195
lfoot -5.83334 3.64194
ltoes -3.25045
570
root 4.43509 18.317 3.24366 23.2875 -5.62624 -1.93401
lowerback 24.301 3.07548 -3.97138
upperback 7.91281 2.86818 -1.40399
thorax -4.88999 1.35929 -0.0519905
lowerneck -5.75805 -2.73082 -8.85607
upperneck -7.95776 -2.80971 9.90773
head -1.12051 -1.30504 4.41561
rclavicle 7.15625e-015 -1.35174e-014
rhumerus -5.9872 45.7196 -76.1773
rradius 75.5626
rwrist -3.64148
rhand -24.3629 -1.21753
rfingers 7.12502
rthumb 2.12689 -31.1867
lclavicle 7.15625e-015 -1.35174e-014
lhumerus -5.32526 -44.1956 90.0498
lradius 33.4231
lwrist -15.5016
lhand -11.9649 39.1457
lfingers 7.12502
lthumb 14.0908 68.648
rfemur -42.8789 5.21323 2.25234
rtibia 42.101
rfoot -14.4765 -10.863
rtoes -8.82583
lfemur -50.093 -1.34195 -13.559
ltibia 35.2786
lfoot -5.95156 3.67792
ltoes -3.34235
571
root 4.44517 18.3272 3.26186 23.1183 -5.72468 -1.85972
lowerback 24.1828 2.9303 -3.97303
upperback 7.82181 2.68314 -1.48175
thorax -4.92208 1.27253 -0.0808783
lowerneck -5.84276 -2.72086 -8.76818
upperneck -8.08911 -2.77358 10.1949
head -1.14248 -1.2919 4.49078
rclavicle -3.45885e-014 9.14409e-015
rhumerus -5.93806 45.4788 -75.964
rradius 78.4062
rwrist -6.30684
rhand -24.7813 -2.25491
rfingers 7.12502
rthumb 1.72279 -32.2277
lclavicle -3.45885e-014 9.14409e-015
lhumerus -5.44037 -43.9964 90.0148
lradius 33.1645
lwrist -15.295
lhand -10.6902 38.9067
lfingers 7.12502
lthumb 15.3189 68.3193
rfemur -42.694 5.2352 2.17568
rtibia 41.7999
rfoot -14.2941 -12.0939
rtoes -7.97319
lfemur -49.8566 -1.30196 -13.7369
ltibia 35.3268
lfoot -5.97057 3.6097
ltoes -3.69109
572
root 4.45479 18.3395 3.2787 23.0039 -5.86499 -1.90922
lowerback 23.9682 2.78963 -3.94319
upperback 7.72135 2.52056 -1.49093
thorax -4.91961 1.19573 -0.0564787
lowerneck -5.84376 -2.70241 -8.75647
upperneck -8.22368 -2.72921 10.4612
head -1.17919 -1.27464 4.57348
rclavicle 0 3.77691e-015
rhumerus -5.71562 45.2999 -75.5174
rradius 81.3772
rwrist -9.2213
rhand -26.4149 -2.51352
rfingers 7.12502
rthumb 0.145014 -32.4932
lclavicle 0 3.77691e-015
lhumerus -5.60668 -43.6842 90.077
lradius 32.887
lwrist -15.2041
lhand -11.8103 38.7136
lfingers 7.12502
lthumb 14.2398 68.2054
rfemur -42.5553 5.29073 2.23182
rtibia 41.4165
rfoot -14.0475 -13.2262
rtoes -7.57623
lfemur -49.6419 -1.21464 -13.7725
ltibia 35.3647
lfoot -6.05077 3.63032
ltoes -3.33763
573
root 4.46772 18.3522 3.31015 22.6244 -6.31063 -2.12795
lowerback 23.8037 2.71719 -3.91784
upperback 7.7357 2.43949 -1.52311
thorax -4.81748 1.15505 -0.0763878
lowerneck -6.02198 -2.61218 -8.78388
upperneck -8.16966 -2.58641 10.6652
head -1.14287 -1.2 4.64074
rclavicle 7.95139e-016 9.54166e-015
rhumerus -5.23873 45.1369 -75.0219
rradius 84.3695
rwrist -12.0182
rhand -28.874 -2.1869
rfingers 7.12502
rthumb -2.22997 -32.155
lclavicle 7.95139e-016 9.54166e-015
lhumerus -5.72163 -43.8669 89.9808
lradius 32.5576
lwrist -14.1264
lhand -14.0297 38.8115
lfingers 7.12502
lthumb 12.1005 68.4416
rfemur -42.0883 5.68492 2.38133
rtibia 40.928
rfoot -13.9004 -14.031
rtoes -7.60035
lfemur -48.99 -1.10593 -13.6364
ltibia 35.3947
lfoot -6.33571 3.96411
ltoes -3.07407
574
root 4.47138 18.3563 3.33313 22.2686 -6.69936 -2.34512
lowerback 23.7304 2.60954 -3.91087
upperback 7.67821 2.29939 -1.6003
thorax -4.83653 1.08807 -0.123881
lowerneck -6.38489 -2.46865 -8.77753
upperneck -7.87739 -2.37154 10.9363
head -1.01325 -1.0835 4.71981
rclavicle -1.35174e-014 4.77083e-015
rhumerus -4.69058 44.8966 -74.6644
rradius 87.3813
rwrist -14.7943
rhand -29.89 -2.08565
rfingers 7.12502
rthumb -3.21118 -32.0412
lclavicle -1.35174e-014 4.77083e-015
lhumerus -5.84536 -44.6644 89.648
lradius 32.2004
lwrist -12.3778
lhand -16.0007 38.7346
lfingers 7.12502
lthumb 10.1994 68.4674
rfemur -41.62 6.24331 2.48925
rtibia 40.3558
rfoot -13.8277 -14.8276
rtoes -7.26758
lfemur -48.409 -0.885335 -13.5118
ltibia 35.3828
lfoot -6.47628 4.19201
ltoes -3.13639
575
root 4.47844 18.3729 3.36351 21.8 -7.11599 -2.35671
lowerback 23.5072 2.51213 -3.91421
upperback 7.71968 2.17606 -1.76663
thorax -4.66982 1.02765 -0.258929
lowerneck -6.74409 -2.41034 -8.53512
upperneck -7.51421 -2.29624 11.1455
head -0.854319 -1.04133 4.73752
rclavicle -2.82274e-014 1.19271e-014
rhumerus -3.75866 44.3625 -74.0099
rradius 90.3672
rwrist -17.8384
rhand -28.9724 -3.3272
rfingers 7.12502
rthumb -2.32508 -33.2943
lclavicle -2.82274e-014 1.19271e-014
lhumerus -5.81531 -44.9123 89.2651
lradius 31.8218
lwrist -12.0996
lhand -16.1186 38.7693
lfingers 7.12502
lthumb 10.0858 68.5076
rfemur -40.9307 6.66485 2.42193
rtibia 39.7095
rfoot -13.8584 -15.2671
rtoes -6.43275
lfemur -47.6514 -0.701393 -13.656
ltibia 35.3677
lfoot -6.67156 4.33759
ltoes -3.47961
576
root 4.49269 18.405 3.40737 21.1267 -7.71303 -1.90626
lowerback 23.1995 2.46056 -4.22198
upperback 7.85146 2.04488 -2.06636
thorax -4.36573 0.960644 -0.358904
lowerneck -6.95464 -2.36825 -8.26475
upperneck -7.17869 -2.25506 11.4086
head -0.723142 -1.02037 4.76853
rclavicle 9.93923e-015 -6.75868e-015
rhumerus -2.60582 43.7289 -73.1284
rradius 93.3
rwrist -21.0075
rhand -27.7256 -4.96693
rfingers 7.12502
rthumb -1.12087 -34.9437
lclavicle 9.93923e-015 -6.75868e-015
lhumerus -5.79097 -44.095 89.0753
lradius 31.5694
lwrist -12.8862
lhand -14.0678 38.9716
lfingers 7.12502
lthumb 12.0637 68.6038
rfemur -40.0699 6.8773 1.88623
rtibia 39.1396
rfoot -13.8253 -15.3082
rtoes -6.30988
lfemur -46.5777 -0.737139 -14.3206
ltibia 35.3239
lfoot -7.03938 4.62704
ltoes -3.90759
577
root 4.49264 18.413 3.42799 20.7956 -8.06124 -1.74424
lowerback 22.9884 2.34745 -4.39521
upperback 7.75629 1.86443 -2.20157
thorax -4.359 0.874243 -0.353883
lowerneck -7.0245 -2.27804 -8.16868
upperneck -6.93811 -2.13866 11.7905
head -0.645224 -0.961915 4.86979
rclavicle 1.78906e-014 1.86858e-014
rhumerus -1.92087 43.2745 -72.7663
rradius 96.235
rwrist -23.8046
rhand -27.3581 -5.92553
rfingers 7.12502
rthumb -0.765926 -35.9039
lclavicle 1.78906e-014 1.86858e-014
lhumerus -6.01482 -43.295 89.1066
lradius 31.2581
lwrist -13.4407
lhand -12.7338 38.8992
lfingers 7.12502
lthumb 13.3498 68.4515
rfemur -39.6246 7.20231 1.64848
rtibia 38.6056
rfoot -13.6443 -15.5807
rtoes -7.49744
lfemur -46.0218 -0.778007 -14.5074
ltibia 35.2198
lfoot -7.20163 4.87986
ltoes -3.76002
578
root 4.47899 18.4004 3.4268 20.8165 -8.15702 -1.51717
lowerback 22.8203 2.18413 -4.69208
upperback 7.4055 1.58799 -2.25996
thorax -4.65421 0.747597 -0.178018
lowerneck -6.89482 -2.26053 -8.03483
upperneck -6.81985 -2.13559 11.9561
head -0.62954 -0.967231 4.8981
rclavicle -1.43125e-014 -1.43125e-014
rhumerus -0.878422 42.7504 -72.1588
rradius 99.0197
rwrist -26.8542
rhand -27.6412 -6.74113
rfingers 7.12502
rthumb -1.03936 -36.7183
lclavicle -1.43125e-014 -1.43125e-014
lhumerus -6.52844 -43.1218 89.3349
lradius 30.7527
lwrist -14.091
lhand -12.9254 38.7237
lfingers 7.12502
lthumb 13.1651 68.2881
rfemur -39.6481 7.41092 1.33311
rtibia 38.2006
rfoot -13.3838 -15.9444
rtoes -8.36906
lfemur -46.1289 -0.758636 -14.725
ltibia 35.2852
lfoot -7.17716 4.87449
ltoes -3.87282
579
root 4.47503 18.4155 3.46237 20.2452 -8.56429 -0.968244
lowerback 22.7775 2.11875 -5.30183
upperback 7.24511 1.35916 -2.40647
thorax -4.80595 0.640026 0.0676398
lowerneck -6.59461 -2.29064 -7.84596
upperneck -6.78914 -2.21205 11.8785
head -0.665395 -1.01875 4.8424
rclavicle 1.74931e-014 -6.36111e-015
rhumerus 0.208654 42.2245 -71.4883
rradius 101.868
rwrist -30.1887
rhand -28.4814 -7.18547
rfingers 7.12502
rthumb -1.85083 -37.1572
lclavicle 1.74931e-014 -6.36111e-015
lhumerus -6.99808 -43.0501 89.548
lradius 30.2017
lwrist -14.3655
lhand -12.7142 38.2866
lfingers 7.12502
lthumb 13.3687 67.8377
rfemur -38.9769 7.65908 0.710468
rtibia 37.7266
rfoot -13.2213 -15.8946
rtoes -7.62884
lfemur -45.4474 -0.834586 -15.404
ltibia 35.5111
lfoot -7.59563 5.01065
ltoes -4.08139
580
root 4.44517 18.3949 3.44463 20.5898 -8.55125 -2.02752
lowerback 22.5676 1.94056 -4.62564
upperback 6.8573 1.2966 -2.1117
thorax -5.11827 0.618397 0.018178
lowerneck -6.27983 -2.31014 -7.78047
upperneck -6.89043 -2.24748 12.0698
head -0.73867 -1.05131 4.89335
rclavicle -7.15625e-015 2.38542e-015
rhumerus 1.54811 41.6984 -70.7156
rradius 104.652
rwrist -33.7419
rhand -30.0555 -7.22908
rfingers 7.12502
rthumb -3.37109 -37.1822
lclavicle -7.15625e-015 2.38542e-015
lhumerus -7.1499 -42.8195 89.4985
lradius 29.6732
lwrist -14.3107
lhand -11.9486 37.5742
lfingers 7.12502
lthumb 14.1065 67.0754
rfemur -39.3241 8.823 1.60643
rtibia 37.2316
rfoot -13.2282 -16.6442
rtoes -6.29582
lfemur -45.9311 -0.40007 -14.1104
ltibia 35.8084
lfoot -7.60091 4.99138
ltoes -4.48204
581
root 4.42665 18.3935 3.4623 20.0801 -9.73489 -3.0873
lowerback 22.5481 2.24202 -4.38003
upperback 6.81706 1.73545 -1.99735
thorax -5.16506 0.827004 -0.114438
lowerneck -5.95839 -2.29357 -7.69988
upperneck -7.01184 -2.22952 12.3254
head -0.823067 -1.05897 4.96318
rclavicle -3.89618e-014 5.56597e-015
rhumerus 3.05371 41.0186 -69.8253
rradius 107.408
rwrist -37.1872
rhand -31.4731 -6.86365
rfingers 7.12502
rthumb -4.73995 -36.7906
lclavicle -3.89618e-014 5.56597e-015
lhumerus -7.23927 -42.4202 89.4619
lradius 29.136
lwrist -14.4143
lhand -11.5532 37.2254
lfingers 7.12502
lthumb 14.4875 66.6996
rfemur -38.8971 10.4651 2.40992
rtibia 36.5371
rfoot -12.8747 -16.5757
rtoes -6.28812
lfemur -44.981 0.512364 -13.1236
ltibia 36.0253
lfoot -8.02655 5.47466
ltoes -4.57757
582
root 4.42267 18.4138 3.50618 19.4148 -10.1517 -2.86004
lowerback 22.104 2.13609 -4.52295
upperback 6.8746 1.59193 -2.11769
thorax -4.87174 0.754134 -0.110977
lowerneck -5.79753 -2.23574 -7.64603
upperneck -6.85707 -2.16843 12.5165
head -0.806651 -1.03399 5.01381
rclavicle 1.19271e-014 3.18055e-015
rhumerus 4.31991 40.3307 -69.5349
rradius 110.054
rwrist -40.4311
rhand -32.4801 -6.56314
rfingers 7.12502
rthumb -5.7123 -36.4661
lclavicle 1.19271e-014 3.18055e-015
lhumerus -7.4556 -42.1529 89.5357
lradius 28.6517
lwrist -14.2357
lhand -11.2821 37.4128
lfingers 7.12502
lthumb 14.7487 66.8681
rfemur -37.9047 10.8306 2.27911
rtibia 35.8475
rfoot -12.4519 -16.3577
rtoes -7.26203
lfemur -44.1163 0.484519 -13.4316
ltibia 36.3148
lfoot -8.54757 5.68229
ltoes -4.99719
